<?xml version="1.0" encoding="UTF-8" standalone="no"?>
<svg width="104px" height="88px" viewBox="0 0 104 88" version="1.1" xmlns="http://www.w3.org/2000/svg" xmlns:xlink="http://www.w3.org/1999/xlink">
    <!-- Generator: Sketch 3.8 (29681) - http://www.bohemiancoding.com/sketch -->
    <title>noun_51143_cc</title>
    <desc>Created with Sketch.</desc>
    <defs></defs>
    <g id="mobile2-copy" stroke="none" stroke-width="1" fill="none" fill-rule="evenodd">
        <g id="01-problem-selection" transform="translate(-135.000000, -1949.000000)" fill="#000000">
            <g id="a-#wrong-location" transform="translate(15.000000, 1932.000000)">
                <g id="Group-2" transform="translate(120.000000, 17.000000)">
                    <g id="noun_51143_cc">
                        <g id="Group">
                            <polygon id="Shape" points="64.6350912 87.7521201 0.203349738 87.7521205 0.203349738 84.6576281 61.9826691 84.6576277 61.9826691 77.6950197 73.255463 77.6950197 73.255463 70.8871363 84.3956358 70.8871363 84.3956358 63.9245283 103.890938 63.9245283 103.890938 67.0190207 87.0480579 67.0190207 87.0480579 73.9816287 75.9078851 73.9816287 75.9078851 80.7895121 64.6350912 80.7895121"></polygon>
                            <path d="M42.8393962,67.9451321 C42.2159245,67.9451321 41.7136604,68.4473962 41.7136604,69.0708679 C41.7136604,69.6901887 42.2159245,70.1957736 42.8393962,70.1957736 L54.1565283,70.1957736 L54.1565283,73.0300377 C54.1565283,74.5833208 52.8938113,75.8452075 51.3430189,75.8452075 C51.3031698,75.8452075 51.2666415,75.8543396 51.2301132,75.8576604 C50.6398491,73.2575094 48.3169811,71.3115472 45.5416604,71.3115472 C42.3230189,71.3115472 39.7046038,73.9307925 39.7046038,77.1510943 C39.7046038,80.3672453 42.3230189,82.9881509 45.5416604,82.9881509 C48.4373585,82.9881509 50.8440755,80.8612075 51.2948679,78.0916981 C51.3106415,78.0916981 51.3264151,78.0966792 51.3430189,78.0966792 C54.1357736,78.0966792 56.4046792,75.8244528 56.4046792,73.0300377 L56.4046792,67.9443019 L42.8393962,67.9443019 L42.8393962,67.9451321 Z M45.5416604,80.1738113 C43.8738113,80.1738113 42.517283,78.8164528 42.517283,77.1510943 C42.517283,75.4799245 43.8738113,74.1242264 45.5416604,74.1242264 C47.2086792,74.1242264 48.5652075,75.4799245 48.5652075,77.1510943 C48.5652075,78.8164528 47.2086792,80.1738113 45.5416604,80.1738113 L45.5416604,80.1738113 Z" id="Shape"></path>
                            <path d="M37.2040755,51.7107925 L43.164,51.1446038 L44.4823396,64.9954717 C44.6483774,66.7496604 46.2058113,68.0356226 47.9591698,67.8687547 C49.7133585,67.7043774 50.9984906,66.1469434 50.8307925,64.3927547 L49.1313962,46.5262642 C49.1114717,46.3046038 49.0666415,46.0895849 49.0035472,45.8845283 C48.4979623,44.0556226 46.741283,42.794566 44.7853585,42.9788679 L32.1781132,44.1809811 L30.6663396,28.3027925 C30.373283,25.2344151 27.6486038,22.9829434 24.5802264,23.2751698 C22.5636981,23.4669434 20.9058113,24.7130566 20.0855849,26.4141132 L12.7508679,37.065434 C12.4088302,37.5618868 12.2826415,38.1405283 12.346566,38.6950943 C12.377283,38.9831698 12.4594717,39.2720755 12.6006038,39.5452075 L15.5726792,45.2710189 C7.96150943,47.8919245 2.49056604,55.1120755 2.49056604,63.6148679 C2.49056604,74.333434 11.1751698,83.0188679 21.8895849,83.0188679 C32.604,83.0188679 41.2902642,74.333434 41.2902642,63.6148679 C41.2902642,59.1260377 39.7618868,54.9991698 37.2040755,51.7107925 L37.2040755,51.7107925 Z M19.3873962,52.5650566 C20.0673208,53.5255849 21.3632453,53.8618113 22.4366792,53.3055849 C22.8542642,53.0880755 23.1788679,52.7651321 23.3996981,52.386566 C28.934566,53.1270943 33.2216604,57.8790943 33.2216604,63.6148679 C33.2216604,69.8620377 28.1367547,74.9486038 21.8912453,74.9486038 C15.6440755,74.9486038 10.5624906,69.8620377 10.5624906,63.6148679 C10.5616604,58.2269434 14.3398491,53.7082264 19.3873962,52.5650566 L19.3873962,52.5650566 Z M17.5003774,38.6021132 L20.077283,34.861283 L20.9689057,44.2357736 C20.7929057,44.2440755 20.618566,44.2590189 20.4442264,44.2714717 L17.5003774,38.6021132 L17.5003774,38.6021132 Z M21.8895849,79.0821132 C13.3643774,79.0821132 6.42815094,72.1442264 6.42815094,63.6148679 C6.42815094,56.6446038 11.0630943,50.7403019 17.410717,48.8142642 L18.2948679,50.5169811 C12.54,52.0926792 8.31018868,57.3602264 8.31018868,63.6148679 C8.31018868,71.1164528 14.3896604,77.1975849 21.8895849,77.1975849 C29.3886792,77.1975849 35.4706415,71.1164528 35.4706415,63.6148679 C35.4706415,58.9799245 33.145283,54.8879245 29.6003774,52.434717 L32.2893585,52.1806792 C35.3984151,55.0099623 37.3526792,59.0870189 37.3526792,63.6140377 C37.3526792,72.1433962 30.4147925,79.0821132 21.8895849,79.0821132 L21.8895849,79.0821132 Z" id="Shape"></path>
                            <path d="M50.5367811,4.92214717 C50.2418151,4.66316981 50.2785094,4.22213208 50.5367811,3.96386038 C50.5367811,3.96386038 53.2726264,0.717822642 58.0400679,0.717822642 C61.954366,0.717822642 65.5779321,3.44731698 65.5779321,7.17108679 C65.5779321,12.0366151 60.0356755,12.1840981 60.0356755,16.1668453 C60.0356755,16.5733057 59.7018981,16.8682717 59.3321321,16.8682717 L55.3790226,16.8682717 C55.0085509,16.8682717 54.6783019,16.5740113 54.6783019,16.1668453 L54.6783019,14.6200377 C54.6783019,11.5200717 59.7788151,10.1574415 59.7788151,7.79841887 C59.7788151,6.65383774 58.594717,5.62216226 57.0062755,5.62216226 C54.4193245,5.62216226 53.7178981,7.94660755 52.793483,7.13509811 L50.5367811,4.92214717 L50.5367811,4.92214717 Z" id="Path"></path>
                            <ellipse id="Oval" cx="27.1446792" cy="14.6818868" rx="6.38" ry="6.38"></ellipse>
                            <path d="M53.8653811,23.8006792 C53.8653811,21.8819887 55.453117,20.2610868 57.3365245,20.2610868 C59.2601547,20.2610868 60.8831736,21.8819887 60.8831736,23.8006792 C60.8831736,25.6805585 59.2587434,27.2682943 57.3365245,27.2682943 C55.453117,27.2682943 53.8653811,25.6805585 53.8653811,23.8006792 L53.8653811,23.8006792 Z" id="Path"></path>
                        </g>
                    </g>
                </g>
            </g>
        </g>
    </g>
</svg>