<?xml version="1.0" encoding="UTF-8" standalone="no"?>
<svg width="88px" height="84px" viewBox="0 0 88 84" version="1.1" xmlns="http://www.w3.org/2000/svg" xmlns:xlink="http://www.w3.org/1999/xlink">
    <!-- Generator: Sketch 3.8 (29681) - http://www.bohemiancoding.com/sketch -->
    <title>Group</title>
    <desc>Created with Sketch.</desc>
    <defs>
        <path d="M79.645,73.334 C79.483,72.61 75.56,55.577 65.316,52.095 C59.593,50.149 54.625,49.189 51.519,48.727 C53.937,44.445 56.993,37.499 57.372,32.178 C57.768,26.655 56.65,18.441 54.155,14.802 C49.517,8.043 40.389,7.965 39.999,7.965 C39.612,7.965 30.481,8.043 25.845,14.802 C23.352,18.437 22.234,26.652 22.627,32.178 C22.876,35.652 24.265,39.816 25.871,43.482 C22.617,43.385 19.998,40.715 19.998,37.438 L19.998,31.517 L19.998,29.736 L19.998,24.988 L19.998,24.23 C19.998,13.202 28.971,4.229 40,4.229 C51.027,4.229 60,13.202 60,24.23 L60,24.987 L60,31.516 L60,38.044 C60,39.148 60.896,40.044 62,40.044 C66.702,40.044 70.528,36.218 70.528,31.516 C70.528,27.494 67.726,24.121 63.974,23.227 C63.446,10.456 52.897,0.229 39.998,0.229 C27.099,0.229 16.551,10.457 16.022,23.228 C12.27,24.123 9.468,27.495 9.468,31.517 C9.468,35.641 12.411,39.09 16.308,39.876 C17.402,44.242 21.348,47.49 26.049,47.49 L27.803,47.49 C28.032,47.923 28.257,48.335 28.479,48.726 C25.373,49.188 20.405,50.148 14.684,52.094 C4.437,55.576 0.516,72.61 0.354,73.333 C0.114,74.41 0.792,75.479 1.869,75.721 C2.016,75.754 2.163,75.77 2.308,75.77 C3.223,75.77 4.048,75.138 4.257,74.208 C5.23,69.888 9.23,58.173 15.972,55.882 C23.066,53.469 29.042,52.645 31.231,52.405 C33.424,54.322 36.159,55.053 38,55.326 L38,73.77 C38,74.874 38.896,75.77 40,75.77 C41.104,75.77 42,74.874 42,73.77 L42,55.325 C43.843,55.053 46.574,54.321 48.767,52.404 C50.955,52.643 56.932,53.467 64.028,55.882 C70.767,58.173 74.768,69.888 75.742,74.209 C75.951,75.139 76.776,75.771 77.691,75.771 C77.837,75.771 77.984,75.755 78.131,75.722 C79.208,75.479 79.886,74.411 79.645,73.334 L79.645,73.334 Z M66.528,31.517 C66.528,33.292 65.491,34.818 64,35.559 L64,31.517 L64,27.474 C65.491,28.216 66.528,29.741 66.528,31.517 L66.528,31.517 Z M13.469,31.517 C13.469,29.742 14.506,28.216 15.997,27.474 L15.997,29.736 L15.997,31.517 L15.997,35.559 C14.506,34.817 13.469,33.292 13.469,31.517 L13.469,31.517 Z M37.8,43.49 L30.27,43.49 C28.405,39.546 26.842,35.042 26.617,31.892 C26.233,26.514 27.414,19.584 29.143,17.064 C32.592,12.036 39.925,11.964 40.002,11.964 C40.075,11.964 47.405,12.035 50.856,17.064 C52.586,19.587 53.767,26.516 53.381,31.892 C53.06,36.403 49.997,43.694 47.223,48.136 C47.077,48.368 46.914,48.581 46.743,48.782 C46.609,48.891 46.492,49.017 46.389,49.158 C44.034,51.457 40.057,51.491 40.011,51.491 L40.011,51.492 C40.007,51.492 40.004,51.491 40,51.491 C39.996,51.491 39.993,51.492 39.989,51.492 L39.989,51.491 C39.943,51.491 35.974,51.458 33.617,49.168 C33.512,49.021 33.388,48.889 33.248,48.774 C33.079,48.576 32.919,48.365 32.775,48.136 C32.645,47.928 32.514,47.708 32.383,47.489 L37.8,47.489 C38.904,47.489 39.8,46.593 39.8,45.489 C39.8,44.385 38.904,43.49 37.8,43.49 L37.8,43.49 Z" id="path-1"></path>
        <filter x="-50%" y="-50%" width="200%" height="200%" filterUnits="objectBoundingBox" id="filter-2">
            <feOffset dx="0" dy="2" in="SourceAlpha" result="shadowOffsetOuter1"></feOffset>
            <feGaussianBlur stdDeviation="2" in="shadowOffsetOuter1" result="shadowBlurOuter1"></feGaussianBlur>
            <feColorMatrix values="0 0 0 0 0   0 0 0 0 0   0 0 0 0 0  0 0 0 0.5 0" type="matrix" in="shadowBlurOuter1"></feColorMatrix>
        </filter>
    </defs>
    <g id="mobile2-copy" stroke="none" stroke-width="1" fill="none" fill-rule="evenodd">
        <g id="02a-problem-#electioneering-flat" transform="translate(-144.000000, -2834.000000)">
            <g id="a-#call-RRT" transform="translate(14.000000, 2809.704063)">
                <g id="Group" transform="translate(134.000000, 26.000000)">
                    <g id="Shape">
                        <g>
                            <use fill="black" fill-opacity="1" filter="url(#filter-2)" xlink:href="#path-1"></use>
                            <use fill="#000000" fill-rule="evenodd" xlink:href="#path-1"></use>
                        </g>
                        <path d="M51.203,64.274 C50.099,64.274 49.203,65.17 49.203,66.274 C49.203,67.378 50.099,68.274 51.203,68.274 L62.848,68.274 C63.952,68.274 64.848,67.378 64.848,66.274 C64.848,65.17 63.952,64.274 62.848,64.274 L51.203,64.274 Z" fill="#000000"></path>
                    </g>
                </g>
            </g>
        </g>
    </g>
</svg>