<?xml version="1.0" encoding="UTF-8" standalone="no"?>
<svg width="86px" height="75px" viewBox="0 0 86 75" version="1.1" xmlns="http://www.w3.org/2000/svg" xmlns:xlink="http://www.w3.org/1999/xlink">
    <!-- Generator: Sketch 3.8 (29681) - http://www.bohemiancoding.com/sketch -->
    <title>Group</title>
    <desc>Created with Sketch.</desc>
    <defs></defs>
    <g id="mobile2-copy" stroke="none" stroke-width="1" fill="none" fill-rule="evenodd">
        <g id="01-problem-selection" transform="translate(-144.000000, -1332.000000)" fill="#000000">
            <g id="a-#send-away" transform="translate(15.000000, 1299.000000)">
                <g id="Group" transform="translate(129.000000, 33.000000)">
                    <g>
                        <path d="M85.9030087,20.6560355 C85.3696232,16.8444704 77.273454,9.50165953 72.2257582,5.25598868 C71.3536534,4.36831059 70.3861621,3.5740723 69.342751,2.88690045 C69.3310711,2.87716714 69.3135511,2.8635405 69.3018711,2.85380719 C69.2765645,2.8323939 69.2434712,2.82850057 69.216218,2.80903395 C66.4811572,1.03951776 63.2302309,0 59.7379184,0 C56.5492853,0 53.5650517,0.870158126 50.9876706,2.36519491 L50.9876706,2.36519491 L50.9857239,2.36519491 C49.3544208,3.31127287 47.8924772,4.51236361 46.6485599,5.91590726 C43.2477406,8.79307439 39.035163,12.5987995 36.3156755,15.8925524 L20.27907,15.8925524 C16.887984,15.8925524 13.6428977,16.7510306 10.7813038,18.3745471 L9.6678129,17.0040967 C7.80875024,14.7109283 4.43129085,14.3585824 2.13617579,16.2195917 C0.288793103,17.7165752 -0.347765525,20.290063 0.584685799,22.4761649 C0.779352047,22.9316839 3.53582611,26.443463 3.53582611,26.443463 C2.46126842,28.7307914 1.86753637,31.2030528 1.86753637,33.6986741 L1.86753637,68.7035587 C1.86753637,70.4419283 3.01996055,71.9700583 4.69214362,72.4469906 L11.4295424,74.3722398 C11.9142614,74.5104528 12.4048203,74.578586 12.9012193,74.578586 C15.2780942,74.578586 17.3941163,72.9823228 18.0481949,70.6969411 C18.8580064,67.8567605 17.2091833,64.8881002 14.3709494,64.0782886 L12.5761266,63.5663164 L12.4904735,49.813146 C15.0970545,51.0551167 17.828222,51.7500752 20.3160566,51.7500752 C23.2963969,51.7500752 28.5115056,50.7689573 33.5553081,49.8209327 C36.7809278,49.2155207 40.0883074,48.5945353 41.7176639,48.4738423 L41.7176639,69.0461713 C41.7176639,70.7845409 42.8700881,72.3126709 44.5422711,72.7896032 L51.2796699,74.7148524 C51.7643889,74.8530654 52.2549478,74.9211986 52.7513468,74.9211986 C55.1282216,74.9211986 57.2442438,73.3249354 57.8983223,71.0395537 C58.7081339,68.1993731 57.0593108,65.2307128 54.2210769,64.4209012 L52.4262541,63.908929 L52.4262541,45.7251548 C56.6407784,43.2470535 59.4673323,39.3848752 60.3374904,35.0165646 C66.3604641,34.812165 71.6106128,31.5612387 74.608473,26.7510357 C74.6688196,26.7588224 75.2742316,26.8094356 75.6635641,26.8094356 C77.8438261,26.8094356 82.6988023,26.5271695 84.8440243,24.1619746 C85.7219691,23.1828034 86.0898883,21.9719793 85.9030087,20.6560355 L85.9030087,20.6560355 Z M42.414569,15.0340743 C42.2977693,15.8477792 42.2179561,16.6731641 42.2179561,17.5199623 C42.2179561,19.3907049 42.5196888,21.1913677 43.066701,22.884964 C40.863079,22.7954176 38.2720713,22.3710451 37.5226062,21.5417669 C37.4350064,21.4444338 37.3999665,21.3860339 37.4272198,21.195261 C37.5673795,20.1752099 39.5607618,17.8392149 42.414569,15.0340743 L42.414569,15.0340743 Z M49.5588203,43.042654 C48.931995,43.4066798 48.614689,44.0685451 48.620529,44.744037 L48.5932757,44.7615569 L48.5290359,66.838656 L53.1484659,68.1584932 C53.9251842,68.3804127 54.3729166,69.1882776 54.1509971,69.9630493 C53.9660642,70.6054479 53.3840121,71.0220337 52.7474534,71.0220337 C52.6150804,71.0220337 52.478814,71.0045137 52.346441,70.9655805 L45.6090422,69.0403313 L45.5603756,46.4960332 C45.5253357,46.2273938 45.4280025,45.984061 45.2995228,45.7621414 C44.9938968,44.9951564 44.2346984,44.4734509 43.3840069,44.5104375 C42.9985678,44.5376907 36.9444475,45.2170759 32.835043,45.9899009 C28.192253,46.8639524 22.932371,47.8528569 20.31411,47.8528569 C17.5907292,47.8528569 14.4235093,46.7588326 11.6261554,44.8452634 C10.7384773,44.2398514 9.52570654,44.4695575 8.92029451,45.355289 C8.73341491,45.6278217 8.65165509,45.9295544 8.61856183,46.2371271 L8.58157524,46.2235004 L8.68085503,66.4979901 L13.3002851,67.8178273 C14.0770034,68.0397468 14.5247358,68.8476117 14.3028163,69.6223834 C14.1178833,70.264782 13.5358312,70.6813678 12.8992726,70.6813678 C12.7668996,70.6813678 5.76086132,68.6996654 5.76086132,68.6996654 L5.76086132,33.6967274 C5.76086132,31.3743591 6.37016667,29.1512705 7.54984413,27.0858617 C7.93138998,26.4181564 7.63549728,25.370852 7.03203191,24.6019203 C7.03203191,24.6019203 4.21715798,21.0726213 4.16459809,20.9499815 C3.91542529,20.3659828 4.06921163,19.6651843 4.58897051,19.2447052 C5.21579582,18.7366263 6.13462051,18.8320128 6.64269942,19.4588381 L9.06240087,22.3068053 C9.42837342,22.6494179 9.87610579,22.8771774 10.3608247,22.8771774 C10.7462639,22.8771774 11.1375431,22.7623243 11.478209,22.5228848 C14.0263902,20.733902 17.0690236,19.787824 20.2771234,19.787824 L33.8083742,19.787824 C33.6954678,20.0934501 33.6059213,20.3873961 33.5689348,20.6560355 C33.3840018,21.9719793 33.7538677,23.1828034 34.6357058,24.1561346 C36.7789812,26.5232762 41.6339574,26.8035956 43.8142194,26.8035956 C44.2035518,26.8035956 44.5091779,26.7938623 44.6960575,26.7860756 C44.7583507,26.784129 44.8089639,26.7510357 44.8693104,26.7432491 C47.4058116,30.815667 51.5541493,33.7804339 56.4285922,34.7148319 C55.5740074,38.0689313 52.7143602,41.2088979 49.5588203,43.042654 L49.5588203,43.042654 Z M59.7379184,31.1465996 C52.2238012,31.1465996 46.1112811,25.0340794 46.1112811,17.5199623 C46.1112811,14.2106361 47.2987452,11.1738426 49.2687676,8.81059436 C50.5866581,7.69126343 51.9279085,6.58750581 53.251639,5.53825474 C55.1807815,4.48900366 57.3902434,3.89332495 59.7379184,3.89332495 C62.4340459,3.89332495 64.9432938,4.69145656 67.0612626,6.04633364 C67.8983275,6.71987886 68.743179,7.41483736 69.5841372,8.1234225 C71.9201321,10.5703772 73.3665024,13.8758101 73.3665024,17.5180156 C73.3645557,25.0340794 67.2500889,31.1465996 59.7379184,31.1465996 L59.7379184,31.1465996 Z M81.9532305,21.5417669 C81.2037655,22.3729918 78.6108111,22.7973642 76.4091358,22.884964 C76.956148,21.1933144 77.2578807,19.3926516 77.2578807,17.5199623 C77.2578807,16.6322842 77.1702808,15.7660194 77.0418011,14.9133812 C79.8936616,17.7496684 81.9006707,20.14017 82.048617,21.195261 C82.0758703,21.3840873 82.0408303,21.4444338 81.9532305,21.5417669 L81.9532305,21.5417669 Z" id="Shape"></path>
                        <ellipse id="Oval" cx="59.7379184" cy="14.5999686" rx="3.89332495" ry="2.91999371"></ellipse>
                        <path d="M65.8854785,22.4372317 L60.7112496,20.7124887 L60.7112496,19.4666247 C60.7112496,18.9293459 60.2751972,18.4932935 59.7379184,18.4932935 C59.2006395,18.4932935 58.7645872,18.9293459 58.7645872,19.4666247 L58.7645872,20.7124887 L53.5903583,22.4372317 C53.0803327,22.6065913 52.8058533,23.1574968 52.975213,23.6675224 C53.1114793,24.0743748 53.4910785,24.3332809 53.897931,24.3332809 C53.9991574,24.3332809 54.1023305,24.3177076 54.2055036,24.2826677 L59.7379184,22.4391783 L65.2683865,24.2826677 C65.3715596,24.3177076 65.4747327,24.3332809 65.5759591,24.3332809 C65.9828116,24.3332809 66.3624108,24.0763215 66.4986772,23.6675224 C66.6699835,23.1574968 66.3935574,22.6065913 65.8854785,22.4372317 L65.8854785,22.4372317 Z" id="Shape"></path>
                        <ellipse id="Oval" cx="65.5779058" cy="9.73331237" rx="1.94666247" ry="1.94666247"></ellipse>
                        <ellipse id="Oval" cx="53.897931" cy="9.73331237" rx="1.94666247" ry="1.94666247"></ellipse>
                    </g>
                </g>
            </g>
        </g>
    </g>
</svg>