<?xml version="1.0" encoding="UTF-8" standalone="no"?>
<svg width="78px" height="83px" viewBox="0 0 78 83" version="1.1" xmlns="http://www.w3.org/2000/svg" xmlns:xlink="http://www.w3.org/1999/xlink">
    <!-- Generator: Sketch 3.8 (29681) - http://www.bohemiancoding.com/sketch -->
    <title>noun_434096_cc</title>
    <desc>Created with Sketch.</desc>
    <defs></defs>
    <g id="mobile2-copy" stroke="none" stroke-width="1" fill="none" fill-rule="evenodd">
        <g id="01-problem-selection" transform="translate(-149.000000, -689.000000)" fill="#000000">
            <g id="a-#closed" transform="translate(15.000000, 666.000000)">
                <g id="noun_434096_cc" transform="translate(133.000000, 22.000000)">
                    <g id="Group">
                        <g transform="translate(0.536666, 0.450066)">
                            <path d="M36.9183242,4.32136087 C36.8094355,4.10231738 36.7322005,3.86681398 36.6891515,3.62497984 C36.642304,3.36415348 36.6359733,3.09699639 36.6688931,2.8349039 C36.7701849,2.03343263 37.2551193,1.3104625 37.9552988,0.907827643 C38.292094,0.7141071 38.6643413,0.605218429 39.0505163,0.569766303 C39.1404127,0.564701714 39.2277769,0.562169419 39.3176734,0.563435566 C39.6861222,0.577363187 40.0457081,0.659662764 40.3787048,0.820463477 C41.1244656,1.17878317 41.6663767,1.89035798 41.8119836,2.70575687 C41.8588311,2.96658322 41.8651618,3.23374031 41.832242,3.49583281 C41.7993221,3.75159457 41.7284179,4.00229174 41.6233277,4.236529 C41.6094,4.26565039 41.5967386,4.29350563 41.582811,4.32136087 L64.6292248,33.1300113 L65.034392,33.1312775 C65.4800759,33.1401405 65.9244936,33.1654634 66.3676451,33.2161093 C67.3387802,33.3275303 68.2972537,33.5478399 69.219009,33.8732398 C71.0625195,34.5227734 72.7502939,35.5901356 74.1329268,36.9715023 C75.4763091,38.3161508 76.523413,39.9494809 77.176745,41.7334825 C77.5325324,42.7020852 77.7705681,43.7124708 77.8883198,44.736784 C77.9389657,45.1799355 77.9642886,45.6243533 77.9731517,46.0700371 C78.0237976,54.2189614 78.0237976,62.3678857 77.9731517,70.51681 C77.9642886,70.9624938 77.9389657,71.4069116 77.8883198,71.8500631 C77.7705681,72.8743763 77.5325324,73.8847619 77.176745,74.8533646 C76.523413,76.6373662 75.4763091,78.2706963 74.1329268,79.6153448 C72.7502939,80.9967115 71.0625195,82.0640737 69.219009,82.7136073 C68.2972537,83.0390072 67.3387802,83.2593168 66.3676451,83.3707378 C65.9244936,83.4213837 65.4800759,83.4467066 65.034392,83.4555696 C47.8451757,83.5631922 30.6559594,83.5631922 13.4667431,83.4555696 C13.0210592,83.4467066 12.5766415,83.4213837 12.13349,83.3707378 C11.162355,83.2593168 10.2038814,83.0390072 9.28212615,82.7136073 C7.48799537,82.0817998 5.84073768,81.0536881 4.48089544,79.7254996 C3.08306877,78.3605928 1.99544821,76.686746 1.32439012,74.8533646 C0.987594926,73.9366739 0.755889962,72.983265 0.63307367,72.0146623 C0.569766303,71.5170664 0.53811262,71.0169382 0.527983441,70.51681 C0.477337547,62.3678857 0.477337547,54.2189614 0.527983441,46.0700371 C0.536846472,45.6243533 0.562169419,45.1799355 0.612815313,44.736784 C0.724236279,43.765649 0.944545916,42.8071754 1.26994578,41.8854202 C1.90175331,40.0912894 2.92986495,38.4440317 4.25805351,37.0841895 C5.62296034,35.6863628 7.29680712,34.5987422 9.13018847,33.9276841 C10.0468791,33.5908889 11.0002881,33.359184 11.9688908,33.2363677 C12.4664867,33.1730603 12.9666149,33.1414066 13.4667431,33.1312775 L13.8719103,33.1300113 L36.9183242,4.32136087 L36.9183242,4.32136087 Z M13.6402053,35.2406789 C13.2160459,35.2432112 12.7944189,35.2647357 12.3727918,35.3128493 C11.5586591,35.4065442 10.7559217,35.5901356 9.98357178,35.8636234 C8.47812259,36.3941392 7.09675584,37.2563855 5.95469094,38.3718613 C4.7822385,39.5164585 3.86934627,40.9206159 3.30591071,42.4602511 C3.02355985,43.2275363 2.82983931,44.0277415 2.72601522,44.8380758 C2.67283704,45.2571705 2.64624794,45.6762653 2.63865106,46.0978924 C2.58673902,54.2278244 2.58673902,62.3590227 2.63865106,70.4889547 C2.64624794,70.9105818 2.67283704,71.3296766 2.72601522,71.7487713 C2.82983931,72.5591056 3.02355985,73.3593108 3.30591071,74.126596 C3.86934627,75.6662312 4.7822385,77.0703886 5.95469094,78.2149858 C7.09675584,79.3304616 8.47812259,80.192708 9.98357178,80.7232237 C10.7559217,80.9967115 11.5586591,81.1803029 12.3727918,81.2739978 C12.7450391,81.3170468 13.1198187,81.3373051 13.4945984,81.344902 C30.6648224,81.4537907 47.8363127,81.4537907 65.0065368,81.344902 C65.3813164,81.3373051 65.756096,81.3170468 66.1283433,81.2739978 C66.942476,81.1803029 67.7452134,80.9967115 68.5175633,80.7232237 C70.0647954,80.1787803 71.4803481,79.282348 72.6401391,78.1225571 C73.7682763,76.9956859 74.6469826,75.6244483 75.1952244,74.126596 C75.492769,73.3149956 75.6928203,72.4692092 75.7915798,71.6107613 C75.8346288,71.238514 75.8548872,70.8637343 75.862484,70.4889547 C75.9143961,62.3590227 75.9143961,54.2278244 75.862484,46.0978924 C75.8548872,45.7231128 75.8346288,45.3483331 75.7915798,44.9760858 C75.6928203,44.1176379 75.492769,43.2718515 75.1952244,42.4602511 C74.6469826,40.9623988 73.7682763,39.5911612 72.6401391,38.4642901 C71.4803481,37.3044991 70.0647954,36.4080668 68.5175633,35.8636234 C67.7452134,35.5901356 66.942476,35.4065442 66.1283433,35.3128493 C65.756096,35.2698003 65.3813164,35.249542 65.0065368,35.2419451 C47.8844263,35.1330564 30.7623158,35.2406789 13.6402053,35.2406789 L13.6402053,35.2406789 Z M37.8767977,5.37606161 L15.682501,33.118616 C31.3941233,33.0274534 47.1070118,33.0274534 62.8186341,33.118616 L40.6243374,5.37606161 C40.5268441,5.43683668 40.4268184,5.49001487 40.3217282,5.53812847 C40.0064575,5.67993697 39.6633316,5.7584381 39.3176734,5.76730114 C38.9694828,5.77616417 38.6200262,5.71538909 38.2958925,5.58750821 C38.1502855,5.52926544 38.0097432,5.45836118 37.8767977,5.37606161 L37.8767977,5.37606161 Z" id="Shape"></path>
                            <path d="M17.2411344,57.1255657 L12.779906,57.1255657 L12.779906,54.1372844 C12.779906,53.2683473 12.7322211,52.7261527 12.63685,52.5106845 C12.5414788,52.2952164 12.3313122,52.1874839 12.0063438,52.1874839 C11.6389883,52.1874839 11.4058623,52.3181758 11.3069588,52.5795634 C11.2080554,52.840951 11.1586045,53.4061049 11.1586045,54.2750421 L11.1586045,62.2437921 C11.1586045,63.0774066 11.2080554,63.6213673 11.3069588,63.8756904 C11.4058623,64.1300134 11.6283916,64.2571731 11.9745536,64.2571731 C12.3065865,64.2571731 12.5238175,64.1300134 12.6262532,63.8756904 C12.7286889,63.6213673 12.779906,63.0244234 12.779906,62.084841 L12.779906,59.9337023 L17.2411344,59.9337023 L17.2411344,60.6012971 C17.2411344,62.3744941 17.1157408,63.6319616 16.86495,64.3737372 C16.6141592,65.1155129 16.0596019,65.7654399 15.2012615,66.3235378 C14.3429211,66.8816356 13.2850236,67.1606804 12.0275373,67.1606804 C10.7205992,67.1606804 9.64327458,66.9240222 8.79553098,66.4506987 C7.94778738,65.9773752 7.38616567,65.3221498 7.110649,64.485003 C6.83513233,63.6478562 6.69737606,62.3886226 6.69737606,60.7072645 L6.69737606,55.6950055 C6.69737606,54.4587128 6.73976261,53.5315071 6.82453697,52.9133607 C6.90931133,52.2952144 7.16186449,51.7000366 7.58220402,51.1278097 C8.00254356,50.5555828 8.58535854,50.1052257 9.33066646,49.7767251 C10.0759744,49.4482245 10.9325358,49.2839766 11.9003764,49.2839766 C13.214379,49.2839766 14.2987681,49.5382959 15.1535762,50.046942 C16.0083843,50.5555882 16.570006,51.1896202 16.8384582,51.9490572 C17.1069103,52.7084942 17.2411344,53.8900191 17.2411344,55.4936674 L17.2411344,57.1255657 Z M23.4833219,49.6442658 L23.4833219,63.3670467 L26.1960878,63.3670467 L26.1960878,66.8003912 L19.0220935,66.8003912 L19.0220935,49.6442658 L23.4833219,49.6442658 Z M37.3233734,59.6899773 C37.3233734,61.4137226 37.282753,62.6341018 37.2015109,63.3511516 C37.1202688,64.0682014 36.8659495,64.7234268 36.4385455,65.3168473 C36.0111414,65.9102678 35.4336247,66.3659231 34.7059781,66.683827 C33.9783315,67.0017308 33.1306007,67.1606804 32.16276,67.1606804 C31.2443711,67.1606804 30.4195996,67.0105614 29.6884208,66.7103188 C28.9572419,66.4100763 28.3691286,65.9597193 27.9240632,65.3592342 C27.4789978,64.7587492 27.2140819,64.10529 27.1293076,63.398837 C27.0445332,62.692384 27.0021467,61.4561098 27.0021467,59.6899773 L27.0021467,56.7546797 C27.0021467,55.0309344 27.0427671,53.8105551 27.1240092,53.0935054 C27.2052513,52.3764556 27.4595706,51.7212302 27.8869746,51.1278097 C28.3143787,50.5343892 28.8918954,50.0787338 29.619542,49.76083 C30.3471886,49.4429261 31.1949194,49.2839766 32.16276,49.2839766 C33.0811489,49.2839766 33.9059205,49.4340956 34.6370993,49.7343381 C35.3682782,50.0345807 35.9563915,50.4849377 36.4014569,51.0854227 C36.8465222,51.6859078 37.1114381,52.339367 37.1962125,53.04582 C37.2809869,53.752273 37.3233734,54.9885472 37.3233734,56.7546797 L37.3233734,59.6899773 Z M32.862145,54.0525105 C32.862145,53.2542186 32.8179924,52.743814 32.7296857,52.5212813 C32.6413791,52.2987486 32.4594702,52.1874839 32.1839535,52.1874839 C31.950824,52.1874839 31.7724473,52.2775553 31.6488181,52.4577008 C31.5251888,52.6378463 31.4633751,53.1694443 31.4633751,54.0525105 L31.4633751,62.0636475 C31.4633751,63.0597462 31.5039955,63.6743511 31.5852376,63.9074806 C31.6664797,64.1406101 31.855453,64.2571731 32.1521633,64.2571731 C32.4559381,64.2571731 32.6502098,64.122949 32.7349841,63.8544969 C32.8197585,63.5860447 32.862145,62.9467144 32.862145,61.9364866 L32.862145,54.0525105 Z M48.6202069,54.8366694 L44.4768807,54.8366694 L44.4768807,53.5650604 C44.4768807,52.9716399 44.4238975,52.5936932 44.3179296,52.431209 C44.2119616,52.2687248 44.035351,52.1874839 43.7880925,52.1874839 C43.5196404,52.1874839 43.3165382,52.2969825 43.1787798,52.5159829 C43.0410215,52.7349833 42.9721434,53.0670113 42.9721434,53.5120767 C42.9721434,54.0843036 43.049852,54.5152335 43.2052717,54.8048792 C43.3536268,55.0945249 43.77396,55.4442139 44.466284,55.8539566 C46.4514169,57.0337332 47.70182,58.0015593 48.2175307,58.757464 C48.7332413,59.5133687 48.9910928,60.7319818 48.9910928,62.41334 C48.9910928,63.6355037 48.8480382,64.5362177 48.5619248,65.1155092 C48.2758113,65.6948006 47.7230201,66.1804798 46.9035346,66.5725612 C46.0840492,66.9646426 45.1303519,67.1606804 44.0424143,67.1606804 C42.8485087,67.1606804 41.8294656,66.9346188 40.9852542,66.4824889 C40.1410429,66.030359 39.5882517,65.4546084 39.3268641,64.7552199 C39.0654765,64.0558315 38.9347846,63.0632799 38.9347846,61.7775354 L38.9347846,60.6542808 L43.0781108,60.6542808 L43.0781108,62.741839 C43.0781108,63.3847112 43.1363923,63.79798 43.252957,63.9816578 C43.3695218,64.1653356 43.5761562,64.2571731 43.8728664,64.2571731 C44.1695767,64.2571731 44.3903399,64.1406101 44.5351628,63.9074806 C44.6799857,63.6743511 44.752396,63.3281943 44.752396,62.8689999 C44.752396,61.8587721 44.6146398,61.1982484 44.3391231,60.8874091 C44.0565419,60.5765698 43.3606961,60.0573346 42.2515649,59.329688 C41.1424337,58.5949769 40.4077336,58.0616129 40.0474426,57.72958 C39.6871515,57.3975471 39.3886796,56.9383595 39.1520179,56.3520035 C38.9153561,55.7656475 38.797027,55.0168186 38.797027,54.1054942 C38.797027,52.7914916 38.9648071,51.83073 39.3003722,51.2231804 C39.6359374,50.6156308 40.178132,50.1405483 40.9269721,49.7979186 C41.6758123,49.4552889 42.5800586,49.2839766 43.6397381,49.2839766 C44.798321,49.2839766 45.7855743,49.4711838 46.6015275,49.8456039 C47.4174807,50.220024 47.9579092,50.6915743 48.222829,51.260269 C48.4877489,51.8289636 48.6202069,52.7950236 48.6202069,54.1584779 L48.6202069,54.8366694 Z M50.5707138,49.6442658 L58.0096267,49.6442658 L58.0096267,53.0776102 L55.0319422,53.0776102 L55.0319422,56.33081 L57.8188854,56.33081 L57.8188854,59.5946066 L55.0319422,59.5946066 L55.0319422,63.3670467 L58.3063355,63.3670467 L58.3063355,66.8003912 L50.5707138,66.8003912 L50.5707138,49.6442658 Z M59.7693924,49.6442658 L63.1073661,49.6442658 C65.2620478,49.6442658 66.7190852,49.7431678 67.4785222,49.9409746 C68.2379592,50.1387814 68.8154758,50.4637449 69.2110895,50.9158749 C69.6067032,51.3680048 69.853958,51.871345 69.9528614,52.4259106 C70.0517649,52.9804762 70.1012158,54.0701636 70.1012158,55.6950055 L70.1012158,61.7033582 C70.1012158,63.2434258 70.0288055,64.2730656 69.8839826,64.7923085 C69.7391598,65.3115515 69.4866066,65.7177559 69.1263156,66.0109339 C68.7660245,66.3041119 68.3209658,66.5089802 67.7911261,66.6255449 C67.2612863,66.7421097 66.4630064,66.8003912 65.3962624,66.8003912 L59.7693924,66.8003912 L59.7693924,49.6442658 Z M64.2306208,52.5795634 L64.2306208,63.8650936 C64.873493,63.8650936 65.2691007,63.7361679 65.4174559,63.4783125 C65.565811,63.2204572 65.6399874,62.5193131 65.6399874,61.3748592 L65.6399874,54.7095085 C65.6399874,53.9324102 65.615262,53.4343683 65.5658103,53.2153679 C65.5163585,52.9963675 65.4033278,52.8356518 65.2267145,52.7332161 C65.0501013,52.6307804 64.7180733,52.5795634 64.2306208,52.5795634 L64.2306208,52.5795634 Z" id="CLOSED"></path>
                        </g>
                    </g>
                </g>
            </g>
        </g>
    </g>
</svg>