<?xml version="1.0" encoding="UTF-8" standalone="no"?>
<svg width="67px" height="90px" viewBox="0 0 67 90" version="1.1" xmlns="http://www.w3.org/2000/svg" xmlns:xlink="http://www.w3.org/1999/xlink">
    <!-- Generator: Sketch 3.8 (29681) - http://www.bohemiancoding.com/sketch -->
    <title>Group</title>
    <desc>Created with Sketch.</desc>
    <defs></defs>
    <g id="mobile2-copy" stroke="none" stroke-width="1" fill="none" fill-rule="evenodd">
        <g id="01-problem-selection" transform="translate(-159.000000, -1529.000000)">
            <g id="a-#wrong-registration" transform="translate(15.000000, 1510.000000)">
                <g id="Group" transform="translate(144.000000, 20.000000)">
                    <g>
                        <g>
                            <polygon id="Shape" stroke="#FFFFFF" stroke-dasharray="2,2" points="66.16048 0 0.54152 0 0.54152 87.82224 66.16048 87.82224 66.16048 0"></polygon>
                            <g transform="translate(8.480000, 7.040000)" id="Shape" fill-opacity="0.5" fill="#FFFFFF">
                                <path d="M0.07744,16.65928 L0.09944,10.71664 C0.10208,10.03112 0.66528,9.47232 1.34992,9.47584 L9.63776,9.50928 C10.32328,9.51192 10.88208,10.07512 10.87944,10.76064 L10.85656,16.72"></path>
                                <path d="M5.53344,0.08448 C3.1416,0.0748 1.19504,2.00552 1.18536,4.39736 C1.17568,6.78832 3.1064,8.73576 5.49824,8.74544 C7.89008,8.75512 9.83752,6.8244 9.84632,4.43344 C9.856,2.04072 7.92528,0.09416 5.53344,0.08448 L5.53344,0.08448 Z M5.48064,7.88568 C4.12368,7.8804 3.02896,6.776 3.03512,5.41904 L7.94816,5.43928 C7.94112,6.79712 6.8376,7.89184 5.48064,7.88568 L5.48064,7.88568 Z"></path>
                            </g>
                            <rect id="Rectangle-path" stroke="#FFFFFF" stroke-width="2" opacity="0.15" x="4.96" y="4.51704" width="18.24152" height="18.85928"></rect>
                            <rect id="Rectangle-path" fill-opacity="0.5" fill="#FFFFFF" x="28.64696" y="27.36008" width="33.0968" height="1.76"></rect>
                            <rect id="Rectangle-path" fill-opacity="0.5" fill="#FFFFFF" x="28.64696" y="31.94664" width="33.0968" height="1.76"></rect>
                            <rect id="Rectangle-path" fill-opacity="0.5" fill="#FFFFFF" x="28.64696" y="36.5332" width="33.0968" height="1.76"></rect>
                            <rect id="Rectangle-path" fill-opacity="0.5" fill="#FFFFFF" x="28.64696" y="41.12064" width="33.0968" height="1.76"></rect>
                            <rect id="Rectangle-path" fill-opacity="0.5" fill="#FFFFFF" x="28.64696" y="45.70632" width="33.0968" height="1.76"></rect>
                            <rect id="Rectangle-path" fill-opacity="0.5" fill="#FFFFFF" x="28.64696" y="50.29288" width="33.0968" height="1.76"></rect>
                            <rect id="Rectangle-path" fill-opacity="0.5" fill="#FFFFFF" x="28.64696" y="54.87944" width="33.0968" height="1.76"></rect>
                            <rect id="Rectangle-path" fill-opacity="0.5" fill="#FFFFFF" x="28.64696" y="59.46688" width="33.0968" height="1.76"></rect>
                            <rect id="Rectangle-path" fill-opacity="0.5" fill="#FFFFFF" x="28.64696" y="64.05344" width="33.0968" height="1.76"></rect>
                            <rect id="Rectangle-path" fill-opacity="0.5" fill="#FFFFFF" x="28.64696" y="68.64" width="33.0968" height="1.76"></rect>
                            <rect id="Rectangle-path" fill-opacity="0.5" fill="#FFFFFF" x="4.08" y="27.36008" width="20.24" height="1.76"></rect>
                            <rect id="Rectangle-path" fill-opacity="0.5" fill="#FFFFFF" x="4.08" y="31.94664" width="20.24" height="1.76"></rect>
                            <rect id="Rectangle-path" fill-opacity="0.5" fill="#FFFFFF" x="4.08" y="36.5332" width="20.24" height="1.76"></rect>
                            <rect id="Rectangle-path" fill-opacity="0.5" fill="#FFFFFF" x="4.08" y="79.32848" width="57.66376" height="1.76"></rect>
                            <polygon id="Shape" fill="#FFFFFF" transform="translate(32.946620, 43.794502) rotate(-15.000000) translate(-32.946620, -43.794502) " points="47.376398 31.532887 34.6776421 38.7894989 27.3343287 25.7945024 21.2290062 29.2822684 28.5742878 42.2812237 15.0488925 50.0109208 18.5188099 56.1491514 32.0461733 48.4194543 39.6040193 61.7945024 45.7073736 58.304757 38.1475594 44.9277295 50.8443471 37.6711176"></polygon>
                        </g>
                    </g>
                </g>
            </g>
        </g>
    </g>
</svg>