<?xml version="1.0" encoding="UTF-8" standalone="no"?>
<svg width="77px" height="88px" viewBox="0 0 77 88" version="1.1" xmlns="http://www.w3.org/2000/svg" xmlns:xlink="http://www.w3.org/1999/xlink">
    <!-- Generator: Sketch 3.8 (29681) - http://www.bohemiancoding.com/sketch -->
    <title>Group</title>
    <desc>Created with Sketch.</desc>
    <defs></defs>
    <g id="mobile2-copy" stroke="none" stroke-width="1" fill="none" fill-rule="evenodd">
        <g id="01-problem-selection" transform="translate(-149.000000, -1108.000000)" fill="#FFFFFF">
            <g id="a-#wrong-ballots" transform="translate(15.000000, 1088.000000)">
                <g id="Group" transform="translate(134.000000, 20.000000)">
                    <g id="noun_11440">
                        <g id="Group">
                            <polygon id="Shape" points="76.419 32.62776 68.476625 40.52576 68.30075 85.69352 76.59575 74.17168"></polygon>
                            <rect id="Rectangle-path" x="0.00875" y="41.14704" width="66.527125" height="46.85296"></rect>
                            <path d="M56.1645,7.88128 L28.856625,0 L20.6325,28.82704 L47.9395,36.70744 L56.1645,7.88128 L56.1645,7.88128 Z M22.990625,27.56072 L30.197125,2.30208 L53.7845,9.10888 L46.578875,34.3684 L22.990625,27.56072 L22.990625,27.56072 Z" id="Shape"></path>
                            <path d="M35.8850921,20.6442743 L38.9419641,20.6442743 C38.6576039,17.8243691 42.2121063,16.9475918 42.2121063,14.0092032 C42.2121063,11.2129946 40.1978883,9.95707048 37.5201632,9.95707048 C35.7666087,9.95707048 34.2737177,10.8338477 33.2073669,12.1134686 L35.1267982,13.8670231 C35.7666087,13.2272127 36.4064191,12.7769757 37.2831963,12.7769757 C38.2310636,12.7769757 38.8708741,13.2983027 38.8708741,14.2698667 C38.8708741,16.0471179 35.4111584,17.3978288 35.8850921,20.6442743 L35.8850921,20.6442743 Z M35.3163717,24.2224733 C35.3163717,25.4547008 36.1931489,26.4025681 37.4016797,26.4025681 C38.6102105,26.4025681 39.5106845,25.4547008 39.5106845,24.2224733 C39.5106845,22.9665492 38.6102105,22.0186819 37.4016797,22.0186819 C36.1931489,22.0186819 35.3163717,22.9665492 35.3163717,24.2224733 L35.3163717,24.2224733 Z" id="?" transform="translate(37.709737, 18.179819) rotate(17.000000) translate(-37.709737, -18.179819) "></path>
                            <polygon id="Shape" points="50.350125 31.29632 49.60025 33.39424 63.8085 33.4268 59.639125 37.07792 16.499875 36.89664 22.7395 33.33616 32.88075 33.24024 26.45825 31.3104 16.77025 31.19424 0 39.37032 66.71875 39.73288 75.3585 31.37552"></polygon>
                        </g>
                    </g>
                </g>
            </g>
        </g>
    </g>
</svg>